<?xml version="1.0" encoding="UTF-8" standalone="no"?>
<!-- Created with Inkscape (http://www.inkscape.org/) -->

<svg
   width="158.511mm"
   height="32.275002mm"
   viewBox="5 5 183.563 37.375942"
   version="1.1"
   id="svg1"
   xml:space="preserve"
   xmlns="http://www.w3.org/2000/svg"
   xmlns:svg="http://www.w3.org/2000/svg"><defs
     id="defs1" /><g
     id="layer1"
     transform="translate(-10.970626,-45.284246)" /><g
     id="g1"
     transform="matrix(0.26458333,0,0,0.26458334,209.02938,-45.284246)"><path
       id="path2"
       style="fill:#2567ab;fill-opacity:1;fill-rule:nonzero;stroke:none;stroke-width:0.133333"
       d="m -448.73861,211.45515 c -7.14398,0 -13.56944,1.26293 -19.27344,3.78906 -5.70664,2.5276 -10.51945,6.01047 -14.43945,10.45312 -3.91867,4.4428 -6.92498,9.64911 -9.01562,15.61524 -2.09067,5.96758 -3.13477,12.43658 -3.13477,19.40429 0,6.79587 1.0441,13.13147 3.13477,19.01172 2.09064,5.87906 5.09695,10.99832 9.01562,15.35352 3.92,4.35731 8.73281,7.77448 14.43945,10.25781 5.704,2.48124 12.12946,3.72461 19.27344,3.72461 5.74933,0 11.01918,-0.87213 15.8125,-2.61328 4.788,-1.74218 8.96769,-4.2686 12.54102,-7.58008 3.57198,-3.30934 6.44695,-7.31897 8.62695,-12.02148 2.17466,-4.70467 3.52616,-9.97363 4.04883,-15.81055 h -19.86133 c -0.784,6.27238 -2.94013,11.32595 -6.4668,15.1582 -3.52931,3.8344 -8.42917,5.75 -14.70117,5.75 -4.61865,0 -8.53712,-0.89383 -11.75976,-2.67969 -3.224,-1.78438 -5.83719,-4.15869 -7.83985,-7.12109 -2.00534,-2.96 -3.46425,-6.29198 -4.3789,-9.99609 -0.91466,-3.70214 -1.3711,-7.51333 -1.3711,-11.4336 0,-4.09211 0.45644,-8.05624 1.3711,-11.89062 0.91465,-3.83226 2.37356,-7.25263 4.3789,-10.25781 2.00266,-3.0052 4.61585,-5.40045 7.83985,-7.1875 3.22264,-1.78387 7.14111,-2.67774 11.75976,-2.67774 2.52666,0 4.94263,0.41371 7.25195,1.24024 2.30666,0.82974 4.37771,1.98418 6.20704,3.46484 1.82932,1.48187 3.3529,3.19923 4.57421,5.16016 1.21867,1.95945 2.00161,4.11728 2.34961,6.46875 h 19.86133 c -0.60934,-5.4 -2.08942,-10.19276 -4.4414,-14.375 -2.352,-4.18134 -5.33652,-7.68585 -8.95118,-10.51758 -3.61598,-2.82973 -7.70987,-4.98507 -12.2832,-6.4668 -4.57331,-1.48027 -9.42836,-2.22265 -14.56836,-2.22265 z m -119.80859,2.22265 v 93.29492 h 70.82226 v -17.24805 h -50.30664 v -22.86718 h 45.21094 v -15.94141 h -45.21094 V 230.9239 h 49.25977 v -17.2461 z m 169.01562,0 v 93.29492 h 19.21094 v -65.46484 h 0.25977 l 22.86523,65.46484 h 15.8125 l 22.86719,-66.11718 h 0.26172 v 66.11718 h 19.20703 V 213.6778 h -28.87695 l -20.64454,64.15625 h -0.26171 l -21.82227,-64.15625 z m 104.69141,0 24.69531,93.29492 h 20.77735 l 15.54883,-63.5039 h 0.26171 l 15.81055,63.5039 h 20.38281 l 25.0879,-93.29492 h -20.1211 l -15.28906,64.28711 h -0.26172 L -223.889,213.6778 h -19.20703 l -16.20312,63.50195 h -0.26172 L -274.3265,213.6778 Z m 126.77149,0 v 93.29492 h 20.51562 v -38.54687 h 39.06836 v -15.94141 h -39.06836 V 230.9239 h 45.07813 v -17.2461 z" /><path
       id="path7"
       style="fill:#2567ab;fill-opacity:1;fill-rule:nonzero;stroke:none;stroke-width:0.133333"
       d="m -688.82455,204.60554 c -25.99891,0 -48.66694,18.62525 -53.30859,44.37109 l 33.45898,0.0644 c 3.67706,-8.33226 12.13827,-13.70703 21.22266,-13.70703 9.75786,0 18.83492,6.61686 22.11719,15.74805 3.14693,-9.34479 12.22155,-15.74805 22.11328,-15.74805 9.28692,0 17.89715,5.37509 21.57422,13.77148 l 31.80859,0.082 c -4.70533,-25.61718 -27.37404,-44.58203 -53.38281,-44.58203 -7.57293,0 -15.62514,1.9101 -22.45313,4.91797 -7.17199,-3.41667 -15.08786,-4.91797 -23.15039,-4.91797 z m -53.78125,48.9121 c -0.75156,4.16507 -0.6849,8.39583 0,12.42969 h 45.875 v -12.42969 z m 77.27149,14.83399 c -3.28227,9.14572 -12.35933,15.77929 -22.11719,15.77929 -9.08439,0 -17.5456,-5.38826 -21.22266,-13.72265 l -33.45898,0.0664 c 4.64165,25.7301 27.30968,44.36913 53.30859,44.36913 8.06253,0 15.9784,-1.50065 23.15039,-4.8496 6.82799,2.9401 14.8802,4.8496 22.45313,4.8496 26.00877,0 48.67748,-18.98205 53.38281,-44.58202 l -31.80859,0.082 c -3.67707,8.39839 -12.2873,13.7871 -21.57422,13.7871 -9.89173,0 -18.96635,-6.41743 -22.11328,-15.77929 z" /></g></svg>
